<?xml version="1.0" encoding="utf-8"?>
<!-- Generated by IcoMoon.io -->
<!DOCTYPE svg PUBLIC "-//W3C//DTD SVG 1.1//EN" "http://www.w3.org/Graphics/SVG/1.1/DTD/svg11.dtd">
<svg version="1.1" xmlns="http://www.w3.org/2000/svg" xmlns:xlink="http://www.w3.org/1999/xlink" width="512" height="512" viewBox="0 0 512 512"><g id="icomoon-ignore">
</g>
<path d="M143.274 232.508c8.422 8.406 40.858 42.64 40.858 42.64l17.984-18.546-28.186-29.124 54.107-57.467c0 0-24.421-23.811-13.734-14.327 10.219-37.952 0.906-80.294-27.921-110.121-28.577-29.593-69.185-39.296-105.668-29.109l61.827 63.858-16.265 62.654-60.53 16.719-61.795-63.874c-9.859 37.718-0.485 79.669 28.156 109.278 30.047 31.061 73.311 40.186 111.169 27.421zM349.408 294.615l-74.56 73.654 122.966 127.403c10.031 10.406 23.249 15.594 36.436 15.594 13.125 0 26.312-5.188 36.406-15.594 20.125-20.812 20.125-54.498 0-75.31l-121.247-125.747zM511.841 80.919l-78.31-80.919-230.837 238.649 28.186 29.124-138.167 142.808-31.577 16.875-44.608 72.779 11.36 11.781 70.419-46.123 16.328-32.656 138.168-142.777 28.202 29.124 230.837-238.664z"></path>
</svg>
